<svg width="168" height="22" viewBox="0 0 168 22" fill="none" xmlns="http://www.w3.org/2000/svg">
<path d="M9.68395 1.36364V15.1705C9.67436 17.2415 8.71555 18.3441 7.00888 18.3441C5.41726 18.3441 4.35298 17.3757 4.32422 15.7841H0.786222C0.786222 19.4084 3.43253 21.2685 6.87465 21.2685C10.6619 21.2685 13.2028 18.9673 13.2124 15.1705V1.36364H9.68395ZM19.8061 21.2972C22.1168 21.2972 23.4975 20.2138 24.1303 18.9769H24.2453V21H27.582V11.1435C27.582 7.25071 24.4083 6.08097 21.599 6.08097C18.5021 6.08097 16.1243 7.46165 15.3572 10.1463L18.598 10.6065C18.9431 9.59979 19.9211 8.73686 21.6182 8.73686C23.229 8.73686 24.1111 9.56143 24.1111 11.0092V11.0668C24.1111 12.0639 23.066 12.1119 20.4676 12.3899C17.6104 12.6967 14.8778 13.5501 14.8778 16.8675C14.8778 19.7631 16.9968 21.2972 19.8061 21.2972ZM20.7074 18.7468C19.2596 18.7468 18.224 18.0852 18.224 16.81C18.224 15.4773 19.3842 14.9212 20.9375 14.7006C21.8483 14.576 23.6701 14.3459 24.1207 13.9815V15.717C24.1207 17.3565 22.7975 18.7468 20.7074 18.7468ZM42.3495 6.27273H38.6581L35.264 17.2127H35.1105L31.726 6.27273H28.025L33.2696 21H37.1049L42.3495 6.27273ZM43.4014 21H46.8722V6.27273H43.4014V21ZM45.1464 4.18253C46.249 4.18253 47.1503 3.33878 47.1503 2.30327C47.1503 1.25817 46.249 0.414417 45.1464 0.414417C44.0342 0.414417 43.1329 1.25817 43.1329 2.30327C43.1329 3.33878 44.0342 4.18253 45.1464 4.18253ZM55.6113 21.2876C59.0438 21.2876 61.4025 19.6097 62.0161 17.0497L58.7753 16.6854C58.3055 17.9318 57.155 18.5838 55.6592 18.5838C53.4156 18.5838 51.9295 17.1072 51.9007 14.5856H62.1599V13.5213C62.1599 8.35334 59.0534 6.08097 55.4291 6.08097C51.2104 6.08097 48.4586 9.17791 48.4586 13.7227C48.4586 18.3441 51.172 21.2876 55.6113 21.2876ZM51.9103 12.2461C52.0157 10.3668 53.406 8.7848 55.477 8.7848C57.4714 8.7848 58.8137 10.2422 58.8329 12.2461H51.9103ZM63.7463 21H67.2172V12.342C67.2172 10.4723 68.6266 9.14915 70.5346 9.14915C71.1195 9.14915 71.8482 9.25462 72.1454 9.3505V6.15767C71.829 6.10014 71.2825 6.06179 70.899 6.06179C69.2115 6.06179 67.802 7.0206 67.2651 8.72727H67.1117V6.27273H63.7463V21ZM81.1237 21L82.7441 16.158H90.1269L91.7569 21H95.5537L88.6311 1.36364H84.2398L77.3268 21H81.1237ZM83.7029 13.3008L86.3588 5.39062H86.5122L89.1681 13.3008H83.7029ZM103.068 6.27273H100.163V2.74432H96.6918V6.27273H94.6016V8.95739H96.6918V17.1456C96.6727 19.9165 98.6861 21.2781 101.294 21.2013C102.282 21.1726 102.962 20.9808 103.336 20.8562L102.751 18.1428C102.56 18.1907 102.167 18.277 101.735 18.277C100.863 18.277 100.163 17.9702 100.163 16.5703V8.95739H103.068V6.27273ZM110.982 21.2876C114.415 21.2876 116.774 19.6097 117.387 17.0497L114.146 16.6854C113.677 17.9318 112.526 18.5838 111.03 18.5838C108.787 18.5838 107.301 17.1072 107.272 14.5856H117.531V13.5213C117.531 8.35334 114.424 6.08097 110.8 6.08097C106.581 6.08097 103.83 9.17791 103.83 13.7227C103.83 18.3441 106.543 21.2876 110.982 21.2876ZM107.281 12.2461C107.387 10.3668 108.777 8.7848 110.848 8.7848C112.842 8.7848 114.185 10.2422 114.204 12.2461H107.281ZM122.588 12.3707C122.588 10.2422 123.873 9.01491 125.704 9.01491C127.497 9.01491 128.571 10.1942 128.571 12.1598V21H132.042V11.6229C132.052 8.09446 130.038 6.08097 126.999 6.08097C124.794 6.08097 123.279 7.13565 122.607 8.77521H122.435V6.27273H119.117V21H122.588V12.3707ZM140.644 21.2876C144.345 21.2876 146.704 19.092 146.953 15.9663H143.636C143.339 17.5483 142.198 18.4592 140.673 18.4592C138.506 18.4592 137.106 16.647 137.106 13.6364C137.106 10.6641 138.535 8.88068 140.673 8.88068C142.342 8.88068 143.368 9.95454 143.636 11.3736H146.953C146.714 8.18075 144.221 6.08097 140.625 6.08097C136.311 6.08097 133.588 9.19709 133.588 13.6939C133.588 18.1523 136.244 21.2876 140.644 21.2876ZM148.454 21H151.924V6.27273H148.454V21ZM150.199 4.18253C151.301 4.18253 152.202 3.33878 152.202 2.30327C152.202 1.25817 151.301 0.414417 150.199 0.414417C149.086 0.414417 148.185 1.25817 148.185 2.30327C148.185 3.33878 149.086 4.18253 150.199 4.18253ZM160.568 21.2876C164.882 21.2876 167.624 18.2482 167.624 13.6939C167.624 9.12997 164.882 6.08097 160.568 6.08097C156.253 6.08097 153.511 9.12997 153.511 13.6939C153.511 18.2482 156.253 21.2876 160.568 21.2876ZM160.587 18.5071C158.199 18.5071 157.03 16.3786 157.03 13.6843C157.03 10.9901 158.199 8.83274 160.587 8.83274C162.936 8.83274 164.106 10.9901 164.106 13.6843C164.106 16.3786 162.936 18.5071 160.587 18.5071Z" fill="#495057"/>
</svg>
