<svg width="567" height="116" viewBox="0 0 567 116" fill="none" xmlns="http://www.w3.org/2000/svg">
<path d="M162.504 31.0909V55.4318C162.487 58.7898 160.987 60.5625 158.259 60.5625C155.686 60.5625 154.015 58.9602 153.964 56.1818H146.617C146.583 63.1534 151.561 66.4773 157.884 66.4773C164.958 66.4773 169.782 62.1989 169.799 55.4318V31.0909H162.504ZM183.231 66.4943C187.1 66.4943 189.606 64.8068 190.884 62.3693H191.089V66H197.975V48.3409C197.975 42.1023 192.691 39.4773 186.862 39.4773C180.589 39.4773 176.464 42.4773 175.458 47.25L182.174 47.7955C182.668 46.0568 184.22 44.7784 186.828 44.7784C189.299 44.7784 190.714 46.0227 190.714 48.1705V48.2727C190.714 49.9602 188.924 50.1818 184.373 50.625C179.191 51.1023 174.538 52.8409 174.538 58.6875C174.538 63.8693 178.237 66.4943 183.231 66.4943ZM185.311 61.483C183.078 61.483 181.475 60.4432 181.475 58.4489C181.475 56.4034 183.163 55.3977 185.72 55.0398C187.305 54.8182 189.896 54.4432 190.765 53.8636V56.642C190.765 59.3864 188.498 61.483 185.311 61.483ZM227.08 39.8182H219.393L213.972 58.5511H213.7L208.262 39.8182H200.592L209.745 66H217.927L227.08 39.8182ZM230.796 66H238.058V39.8182H230.796V66ZM234.444 36.4432C236.609 36.4432 238.382 34.7898 238.382 32.7614C238.382 30.75 236.609 29.0966 234.444 29.0966C232.296 29.0966 230.524 30.75 230.524 32.7614C230.524 34.7898 232.296 36.4432 234.444 36.4432ZM255.806 66.5114C262.284 66.5114 266.647 63.358 267.67 58.5L260.954 58.0568C260.221 60.0511 258.346 61.0909 255.926 61.0909C252.295 61.0909 249.994 58.6875 249.994 54.7841V54.767H267.823V52.7727C267.823 43.875 262.437 39.4773 255.516 39.4773C247.812 39.4773 242.818 44.9489 242.818 53.0284C242.818 61.3295 247.744 66.5114 255.806 66.5114ZM249.994 50.267C250.147 47.2841 252.414 44.8977 255.636 44.8977C258.789 44.8977 260.971 47.1477 260.988 50.267H249.994ZM272.562 66H279.823V51.1875C279.823 47.9659 282.176 45.75 285.38 45.75C286.386 45.75 287.766 45.9205 288.448 46.142V39.6989C287.801 39.5455 286.897 39.4432 286.164 39.4432C283.232 39.4432 280.829 41.1477 279.874 44.3864H279.602V39.8182H272.562V66ZM127.59 106L130.181 98.0398H142.778L145.369 106H153.278L141.244 71.0909H131.732L119.681 106H127.59ZM132.056 92.2784L136.352 79.0682H136.624L140.92 92.2784H132.056ZM169.629 79.8182H164.703V73.5455H157.441V79.8182H153.862V85.2727H157.441V98.9091C157.407 104.04 160.901 106.58 166.168 106.358C168.043 106.29 169.373 105.915 170.106 105.676L168.964 100.273C168.606 100.341 167.839 100.511 167.157 100.511C165.708 100.511 164.703 99.9659 164.703 97.9545V85.2727H169.629V79.8182ZM186.009 106.511C192.487 106.511 196.85 103.358 197.873 98.5L191.157 98.0568C190.424 100.051 188.549 101.091 186.129 101.091C182.498 101.091 180.197 98.6875 180.197 94.7841V94.767H198.026V92.7727C198.026 83.875 192.64 79.4773 185.72 79.4773C178.015 79.4773 173.021 84.9489 173.021 93.0284C173.021 101.33 177.947 106.511 186.009 106.511ZM180.197 90.267C180.35 87.2841 182.617 84.8977 185.839 84.8977C188.992 84.8977 191.174 87.1477 191.191 90.267H180.197ZM210.026 90.8636C210.043 87.4886 212.055 85.5114 214.987 85.5114C217.901 85.5114 219.657 87.4205 219.64 90.625V106H226.901V89.3295C226.901 83.2273 223.322 79.4773 217.867 79.4773C213.981 79.4773 211.168 81.3864 209.992 84.4375H209.686V79.8182H202.765V106H210.026V90.8636ZM244.454 106.511C251.426 106.511 255.806 102.42 256.147 96.4034H249.295C248.869 99.1989 247.028 100.767 244.539 100.767C241.147 100.767 238.948 97.9205 238.948 92.9091C238.948 87.9659 241.164 85.1364 244.539 85.1364C247.198 85.1364 248.903 86.892 249.295 89.5H256.147C255.84 83.4489 251.255 79.4773 244.42 79.4773C236.477 79.4773 231.568 84.983 231.568 93.0114C231.568 100.972 236.391 106.511 244.454 106.511ZM260.796 106H268.058V79.8182H260.796V106ZM264.444 76.4432C266.609 76.4432 268.382 74.7898 268.382 72.7614C268.382 70.75 266.609 69.0966 264.444 69.0966C262.296 69.0966 260.524 70.75 260.524 72.7614C260.524 74.7898 262.296 76.4432 264.444 76.4432ZM285.704 106.511C293.647 106.511 298.59 101.074 298.59 93.0114C298.59 84.8977 293.647 79.4773 285.704 79.4773C277.761 79.4773 272.818 84.8977 272.818 93.0114C272.818 101.074 277.761 106.511 285.704 106.511ZM285.738 100.886C282.073 100.886 280.198 97.5284 280.198 92.9602C280.198 88.392 282.073 85.017 285.738 85.017C289.335 85.017 291.21 88.392 291.21 92.9602C291.21 97.5284 289.335 100.886 285.738 100.886Z" fill="#495057"/>
<path d="M359.098 36.8182H354.381V54.6648H354.151L341.827 36.8182H337.582V63H342.325V45.1662H342.543L354.879 63H359.098V36.8182ZM372.755 63.3835C377.331 63.3835 380.476 61.1463 381.294 57.733L376.973 57.2472C376.347 58.9091 374.813 59.7784 372.819 59.7784C369.827 59.7784 367.846 57.8097 367.807 54.4474H381.486V53.0284C381.486 46.1378 377.344 43.108 372.512 43.108C366.887 43.108 363.218 47.2372 363.218 53.2969C363.218 59.4588 366.836 63.3835 372.755 63.3835ZM367.82 51.3281C367.961 48.8224 369.814 46.7131 372.576 46.7131C375.235 46.7131 377.025 48.6562 377.05 51.3281H367.82ZM393.941 70.696C399.246 70.696 403.158 68.267 403.158 63.3196V43.3636H398.594V46.6108H398.339C397.636 45.1918 396.165 43.108 392.701 43.108C388.163 43.108 384.596 46.6619 384.596 53.1179C384.596 59.5227 388.163 62.7188 392.688 62.7188C396.05 62.7188 397.623 60.9162 398.339 59.4716H398.569V63.1918C398.569 66.0043 396.651 67.1932 394.018 67.1932C391.231 67.1932 390.004 65.8764 389.441 64.8026L385.273 65.8125C386.117 68.4844 388.942 70.696 393.941 70.696ZM393.979 59.0881C390.924 59.0881 389.313 56.7102 389.313 53.0923C389.313 49.5256 390.898 46.9048 393.979 46.9048C396.958 46.9048 398.594 49.3722 398.594 53.0923C398.594 56.8381 396.933 59.0881 393.979 59.0881ZM416.467 63.3835C422.219 63.3835 425.876 59.331 425.876 53.2585C425.876 47.1733 422.219 43.108 416.467 43.108C410.714 43.108 407.058 47.1733 407.058 53.2585C407.058 59.331 410.714 63.3835 416.467 63.3835ZM416.492 59.6761C413.309 59.6761 411.749 56.8381 411.749 53.2457C411.749 49.6534 413.309 46.777 416.492 46.777C419.624 46.777 421.184 49.6534 421.184 53.2457C421.184 56.8381 419.624 59.6761 416.492 59.6761ZM438.369 63.3835C443.304 63.3835 446.449 60.456 446.781 56.2884H442.358C441.961 58.3977 440.44 59.6122 438.407 59.6122C435.518 59.6122 433.652 57.196 433.652 53.1818C433.652 49.2188 435.556 46.8409 438.407 46.8409C440.632 46.8409 442 48.2727 442.358 50.1648H446.781C446.461 45.9077 443.137 43.108 438.343 43.108C432.591 43.108 428.96 47.2628 428.96 53.2585C428.96 59.2031 432.501 63.3835 438.369 63.3835ZM450.581 63H455.209V43.3636H450.581V63ZM452.908 40.5767C454.378 40.5767 455.58 39.4517 455.58 38.071C455.58 36.6776 454.378 35.5526 452.908 35.5526C451.425 35.5526 450.223 36.6776 450.223 38.071C450.223 39.4517 451.425 40.5767 452.908 40.5767ZM468.533 63.3835C474.286 63.3835 477.942 59.331 477.942 53.2585C477.942 47.1733 474.286 43.108 468.533 43.108C462.78 43.108 459.124 47.1733 459.124 53.2585C459.124 59.331 462.78 63.3835 468.533 63.3835ZM468.559 59.6761C465.375 59.6761 463.816 56.8381 463.816 53.2457C463.816 49.6534 465.375 46.777 468.559 46.777C471.691 46.777 473.25 49.6534 473.25 53.2457C473.25 56.8381 471.691 59.6761 468.559 59.6761ZM497.39 48.554C496.751 45.2301 494.092 43.108 489.489 43.108C484.759 43.108 481.538 45.4347 481.55 49.0653C481.538 51.929 483.302 53.821 487.073 54.6009L490.423 55.304C492.225 55.7003 493.069 56.429 493.069 57.5412C493.069 58.8835 491.612 59.8935 489.413 59.8935C487.29 59.8935 485.91 58.973 485.513 57.2088L481.001 57.6435C481.576 61.2486 484.606 63.3835 489.425 63.3835C494.335 63.3835 497.799 60.8395 497.812 57.1193C497.799 54.3196 495.996 52.6065 492.289 51.8011L488.94 51.0852C486.945 50.6378 486.153 49.9474 486.165 48.8097C486.153 47.4801 487.623 46.5597 489.553 46.5597C491.688 46.5597 492.813 47.723 493.171 49.0142L497.39 48.554ZM342.325 80.8182H337.582V107H342.325V80.8182ZM351.885 95.4943C351.885 92.6562 353.598 91.0199 356.039 91.0199C358.43 91.0199 359.862 92.5923 359.862 95.2131V107H364.49V94.4972C364.502 89.7926 361.818 87.108 357.765 87.108C354.825 87.108 352.805 88.5142 351.91 90.7003H351.68V87.3636H347.257V107H351.885V95.4943ZM369.194 107H373.822V95.0597C373.822 92.6435 375.433 91.0071 377.427 91.0071C379.383 91.0071 380.725 92.3239 380.725 94.3438V107H385.264V94.7528C385.264 92.5412 386.581 91.0071 388.818 91.0071C390.684 91.0071 392.167 92.1065 392.167 94.5355V107H396.808V93.8196C396.808 89.4347 394.277 87.108 390.672 87.108C387.821 87.108 385.647 88.5142 384.778 90.7003H384.574C383.819 88.4759 381.914 87.108 379.268 87.108C376.635 87.108 374.666 88.4631 373.848 90.7003H373.618V87.3636H369.194V107ZM410.068 107.384C415.821 107.384 419.477 103.331 419.477 97.2585C419.477 91.1733 415.821 87.108 410.068 87.108C404.315 87.108 400.659 91.1733 400.659 97.2585C400.659 103.331 404.315 107.384 410.068 107.384ZM410.094 103.676C406.911 103.676 405.351 100.838 405.351 97.2457C405.351 93.6534 406.911 90.777 410.094 90.777C413.226 90.777 414.786 93.6534 414.786 97.2457C414.786 100.838 413.226 103.676 410.094 103.676ZM423.61 107H428.161V103.906H428.429C429.158 105.338 430.679 107.345 434.054 107.345C438.682 107.345 442.147 103.676 442.147 97.2074C442.147 90.6619 438.58 87.108 434.042 87.108C430.577 87.108 429.132 89.1918 428.429 90.6108H428.238V80.8182H423.61V107ZM428.148 97.1818C428.148 93.3722 429.784 90.9048 432.763 90.9048C435.844 90.9048 437.429 93.5256 437.429 97.1818C437.429 100.864 435.819 103.548 432.763 103.548C429.81 103.548 428.148 100.991 428.148 97.1818ZM446.081 107H450.709V87.3636H446.081V107ZM448.408 84.5767C449.878 84.5767 451.08 83.4517 451.08 82.071C451.08 80.6776 449.878 79.5526 448.408 79.5526C446.925 79.5526 445.723 80.6776 445.723 82.071C445.723 83.4517 446.925 84.5767 448.408 84.5767ZM460.096 80.8182H455.468V107H460.096V80.8182ZM464.854 107H469.482V87.3636H464.854V107ZM467.181 84.5767C468.651 84.5767 469.853 83.4517 469.853 82.071C469.853 80.6776 468.651 79.5526 467.181 79.5526C465.698 79.5526 464.496 80.6776 464.496 82.071C464.496 83.4517 465.698 84.5767 467.181 84.5767ZM479.892 107.396C482.973 107.396 484.814 105.952 485.657 104.303H485.811V107H490.26V93.858C490.26 88.6676 486.028 87.108 482.282 87.108C478.153 87.108 474.983 88.9489 473.96 92.5284L478.281 93.142C478.741 91.7997 480.045 90.6491 482.308 90.6491C484.456 90.6491 485.632 91.7486 485.632 93.679V93.7557C485.632 95.0852 484.238 95.1491 480.774 95.5199C476.964 95.929 473.321 97.0668 473.321 101.49C473.321 105.351 476.146 107.396 479.892 107.396ZM481.093 103.996C479.163 103.996 477.782 103.114 477.782 101.413C477.782 99.6364 479.329 98.8949 481.4 98.6009C482.615 98.4347 485.044 98.1278 485.645 97.642V99.956C485.645 102.142 483.88 103.996 481.093 103.996ZM494.913 107H499.541V95.456C499.541 92.9631 501.42 91.1989 503.964 91.1989C504.744 91.1989 505.716 91.3395 506.112 91.4673V87.2102C505.69 87.1335 504.961 87.0824 504.45 87.0824C502.2 87.0824 500.321 88.3608 499.605 90.6364H499.4V87.3636H494.913V107ZM509.186 107H513.814V87.3636H509.186V107ZM511.513 84.5767C512.983 84.5767 514.185 83.4517 514.185 82.071C514.185 80.6776 512.983 79.5526 511.513 79.5526C510.03 79.5526 508.828 80.6776 508.828 82.071C508.828 83.4517 510.03 84.5767 511.513 84.5767ZM527.138 107.384C532.891 107.384 536.548 103.331 536.548 97.2585C536.548 91.1733 532.891 87.108 527.138 87.108C521.386 87.108 517.729 91.1733 517.729 97.2585C517.729 103.331 521.386 107.384 527.138 107.384ZM527.164 103.676C523.981 103.676 522.421 100.838 522.421 97.2457C522.421 93.6534 523.981 90.777 527.164 90.777C530.296 90.777 531.856 93.6534 531.856 97.2457C531.856 100.838 530.296 103.676 527.164 103.676ZM555.995 92.554C555.356 89.2301 552.697 87.108 548.095 87.108C543.365 87.108 540.143 89.4347 540.156 93.0653C540.143 95.929 541.907 97.821 545.679 98.6009L549.028 99.304C550.831 99.7003 551.674 100.429 551.674 101.541C551.674 102.884 550.217 103.893 548.018 103.893C545.896 103.893 544.515 102.973 544.119 101.209L539.606 101.643C540.181 105.249 543.211 107.384 548.031 107.384C552.94 107.384 556.404 104.839 556.417 101.119C556.404 98.3196 554.602 96.6065 550.895 95.8011L547.545 95.0852C545.551 94.6378 544.758 93.9474 544.771 92.8097C544.758 91.4801 546.228 90.5597 548.159 90.5597C550.294 90.5597 551.419 91.723 551.777 93.0142L555.995 92.554Z" fill="white"/>
<line x1="318.5" y1="116" x2="318.5" y2="16" stroke="#495057" stroke-width="3"/>
<rect x="0.866025" width="34" height="34" transform="matrix(0.866025 -0.5 0.866025 0.5 30.116 91.933)" fill="#EFEFEF" stroke="black"/>
<rect x="0.433013" y="0.75" width="34" height="34" transform="matrix(0.866025 0.5 -2.20305e-08 1 0.0580127 38.7835)" fill="#FFF500" stroke="black"/>
<rect x="-2.98023e-08" y="0.5" width="34" height="34" transform="matrix(0.866025 0.5 -0.866025 0.5 30.7439 22.25)" fill="#D14242" stroke="black"/>
<rect x="0.433013" y="0.25" width="34" height="34" transform="matrix(0.866025 -0.5 2.20305e-08 1 30.058 56.7165)" fill="white" stroke="black"/>
</svg>
