<svg width="554" height="120" viewBox="0 0 554 120" fill="none" xmlns="http://www.w3.org/2000/svg">
<path d="M151.504 31.091V55.4319C151.487 58.7899 149.987 60.5626 147.259 60.5626C144.686 60.5626 143.015 58.9603 142.964 56.1819H135.617C135.583 63.1535 140.561 66.4774 146.884 66.4774C153.958 66.4774 158.782 62.199 158.799 55.4319V31.091H151.504ZM172.231 66.4944C176.1 66.4944 178.606 64.8069 179.884 62.3694H180.089V66.0001H186.975V48.341C186.975 42.1024 181.691 39.4774 175.862 39.4774C169.589 39.4774 165.464 42.4774 164.458 47.2501L171.174 47.7956C171.668 46.0569 173.22 44.7785 175.828 44.7785C178.299 44.7785 179.714 46.0228 179.714 48.1706V48.2728C179.714 49.9603 177.924 50.1819 173.373 50.6251C168.191 51.1024 163.538 52.841 163.538 58.6876C163.538 63.8694 167.237 66.4944 172.231 66.4944ZM174.311 61.4831C172.078 61.4831 170.475 60.4433 170.475 58.449C170.475 56.4035 172.163 55.3978 174.72 55.0399C176.305 54.8183 178.896 54.4433 179.765 53.8637V56.6421C179.765 59.3865 177.498 61.4831 174.311 61.4831ZM216.08 39.8183H208.393L202.972 58.5512H202.7L197.262 39.8183H189.592L198.745 66.0001H206.927L216.08 39.8183ZM219.796 66.0001H227.058V39.8183H219.796V66.0001ZM223.444 36.4433C225.609 36.4433 227.382 34.7899 227.382 32.7615C227.382 30.7501 225.609 29.0967 223.444 29.0967C221.296 29.0967 219.524 30.7501 219.524 32.7615C219.524 34.7899 221.296 36.4433 223.444 36.4433ZM244.806 66.5115C251.284 66.5115 255.647 63.3581 256.67 58.5001L249.954 58.0569C249.221 60.0512 247.346 61.091 244.926 61.091C241.295 61.091 238.994 58.6876 238.994 54.7842V54.7671H256.823V52.7728C256.823 43.8751 251.437 39.4774 244.516 39.4774C236.812 39.4774 231.818 44.949 231.818 53.0285C231.818 61.3296 236.744 66.5115 244.806 66.5115ZM238.994 50.2671C239.147 47.2842 241.414 44.8978 244.636 44.8978C247.789 44.8978 249.971 47.1478 249.988 50.2671H238.994ZM261.562 66.0001H268.823V51.1876C268.823 47.966 271.176 45.7501 274.38 45.7501C275.386 45.7501 276.766 45.9206 277.448 46.1421V39.699C276.801 39.5456 275.897 39.4433 275.164 39.4433C272.232 39.4433 269.829 41.1478 268.874 44.3865H268.602V39.8183H261.562V66.0001ZM116.59 106L119.181 98.0399H131.778L134.369 106H142.278L130.244 71.091H120.732L108.681 106H116.59ZM121.056 92.2785L125.352 79.0683H125.624L129.92 92.2785H121.056ZM158.629 79.8183H153.703V73.5456H146.441V79.8183H142.862V85.2728H146.441V98.9092C146.407 104.04 149.901 106.58 155.168 106.358C157.043 106.29 158.373 105.915 159.106 105.676L157.964 100.273C157.606 100.341 156.839 100.511 156.157 100.511C154.708 100.511 153.703 99.966 153.703 97.9546V85.2728H158.629V79.8183ZM175.009 106.511C181.487 106.511 185.85 103.358 186.873 98.5001L180.157 98.0569C179.424 100.051 177.549 101.091 175.129 101.091C171.498 101.091 169.197 98.6876 169.197 94.7842V94.7671H187.026V92.7728C187.026 83.8751 181.64 79.4774 174.72 79.4774C167.015 79.4774 162.021 84.949 162.021 93.0285C162.021 101.33 166.947 106.511 175.009 106.511ZM169.197 90.2671C169.35 87.2842 171.617 84.8978 174.839 84.8978C177.992 84.8978 180.174 87.1478 180.191 90.2671H169.197ZM199.026 90.8637C199.043 87.4887 201.055 85.5115 203.987 85.5115C206.901 85.5115 208.657 87.4206 208.64 90.6251V106H215.901V89.3296C215.901 83.2274 212.322 79.4774 206.867 79.4774C202.981 79.4774 200.168 81.3865 198.992 84.4376H198.686V79.8183H191.765V106H199.026V90.8637ZM233.454 106.511C240.426 106.511 244.806 102.42 245.147 96.4035H238.295C237.869 99.199 236.028 100.767 233.539 100.767C230.147 100.767 227.948 97.9206 227.948 92.9092C227.948 87.966 230.164 85.1365 233.539 85.1365C236.198 85.1365 237.903 86.8921 238.295 89.5001H245.147C244.84 83.449 240.255 79.4774 233.42 79.4774C225.477 79.4774 220.568 84.9831 220.568 93.0115C220.568 100.972 225.391 106.511 233.454 106.511ZM249.796 106H257.058V79.8183H249.796V106ZM253.444 76.4433C255.609 76.4433 257.382 74.7899 257.382 72.7615C257.382 70.7501 255.609 69.0967 253.444 69.0967C251.296 69.0967 249.524 70.7501 249.524 72.7615C249.524 74.7899 251.296 76.4433 253.444 76.4433ZM274.704 106.511C282.647 106.511 287.59 101.074 287.59 93.0115C287.59 84.8978 282.647 79.4774 274.704 79.4774C266.761 79.4774 261.818 84.8978 261.818 93.0115C261.818 101.074 266.761 106.511 274.704 106.511ZM274.738 100.886C271.073 100.886 269.198 97.5285 269.198 92.9603C269.198 88.3921 271.073 85.0171 274.738 85.0171C278.335 85.0171 280.21 88.3921 280.21 92.9603C280.21 97.5285 278.335 100.886 274.738 100.886Z" fill="#495057"/>
<path d="M346.098 35.8181H341.381V53.6647H341.151L328.827 35.8181H324.582V61.9999H329.325V44.1661H329.543L341.879 61.9999H346.098V35.8181ZM359.755 62.3834C364.331 62.3834 367.476 60.1462 368.294 56.7329L363.973 56.2471C363.347 57.909 361.813 58.7783 359.819 58.7783C356.827 58.7783 354.846 56.8096 354.807 53.4473H368.486V52.0283C368.486 45.1377 364.344 42.1079 359.512 42.1079C353.887 42.1079 350.218 46.2371 350.218 52.2968C350.218 58.4587 353.836 62.3834 359.755 62.3834ZM354.82 50.328C354.961 47.8223 356.814 45.713 359.576 45.713C362.235 45.713 364.025 47.6561 364.05 50.328H354.82ZM380.941 69.6959C386.246 69.6959 390.158 67.2669 390.158 62.3195V42.3635H385.594V45.6107H385.339C384.636 44.1917 383.165 42.1079 379.701 42.1079C375.163 42.1079 371.596 45.6618 371.596 52.1178C371.596 58.5226 375.163 61.7187 379.688 61.7187C383.05 61.7187 384.623 59.9161 385.339 58.4715H385.569V62.1917C385.569 65.0042 383.651 66.1931 381.018 66.1931C378.231 66.1931 377.004 64.8763 376.441 63.8025L372.273 64.8124C373.117 67.4843 375.942 69.6959 380.941 69.6959ZM380.979 58.088C377.924 58.088 376.313 55.7101 376.313 52.0922C376.313 48.5255 377.898 45.9047 380.979 45.9047C383.958 45.9047 385.594 48.3721 385.594 52.0922C385.594 55.838 383.933 58.088 380.979 58.088ZM403.467 62.3834C409.219 62.3834 412.876 58.3309 412.876 52.2584C412.876 46.1732 409.219 42.1079 403.467 42.1079C397.714 42.1079 394.058 46.1732 394.058 52.2584C394.058 58.3309 397.714 62.3834 403.467 62.3834ZM403.492 58.676C400.309 58.676 398.749 55.838 398.749 52.2456C398.749 48.6533 400.309 45.7769 403.492 45.7769C406.624 45.7769 408.184 48.6533 408.184 52.2456C408.184 55.838 406.624 58.676 403.492 58.676ZM425.369 62.3834C430.304 62.3834 433.449 59.4559 433.781 55.2883H429.358C428.961 57.3976 427.44 58.6121 425.407 58.6121C422.518 58.6121 420.652 56.1959 420.652 52.1817C420.652 48.2187 422.556 45.8408 425.407 45.8408C427.632 45.8408 429 47.2726 429.358 49.1647H433.781C433.461 44.9076 430.137 42.1079 425.343 42.1079C419.591 42.1079 415.96 46.2627 415.96 52.2584C415.96 58.203 419.501 62.3834 425.369 62.3834ZM437.581 61.9999H442.209V42.3635H437.581V61.9999ZM439.908 39.5766C441.378 39.5766 442.58 38.4516 442.58 37.0709C442.58 35.6775 441.378 34.5525 439.908 34.5525C438.425 34.5525 437.223 35.6775 437.223 37.0709C437.223 38.4516 438.425 39.5766 439.908 39.5766ZM455.533 62.3834C461.286 62.3834 464.942 58.3309 464.942 52.2584C464.942 46.1732 461.286 42.1079 455.533 42.1079C449.78 42.1079 446.124 46.1732 446.124 52.2584C446.124 58.3309 449.78 62.3834 455.533 62.3834ZM455.559 58.676C452.375 58.676 450.816 55.838 450.816 52.2456C450.816 48.6533 452.375 45.7769 455.559 45.7769C458.691 45.7769 460.25 48.6533 460.25 52.2456C460.25 55.838 458.691 58.676 455.559 58.676ZM484.39 47.5539C483.751 44.23 481.092 42.1079 476.489 42.1079C471.759 42.1079 468.538 44.4346 468.55 48.0652C468.538 50.9289 470.302 52.8209 474.073 53.6008L477.423 54.3039C479.225 54.7002 480.069 55.4289 480.069 56.5411C480.069 57.8834 478.612 58.8934 476.413 58.8934C474.29 58.8934 472.91 57.9729 472.513 56.2087L468.001 56.6434C468.576 60.2485 471.606 62.3834 476.425 62.3834C481.335 62.3834 484.799 59.8394 484.812 56.1192C484.799 53.3195 482.996 51.6064 479.289 50.801L475.94 50.0851C473.945 49.6377 473.153 48.9473 473.165 47.8096C473.153 46.48 474.623 45.5596 476.553 45.5596C478.688 45.5596 479.813 46.7229 480.171 48.0141L484.39 47.5539ZM329.325 79.8181H324.582V106H329.325V79.8181ZM338.885 94.4942C338.885 91.6561 340.598 90.0198 343.039 90.0198C345.43 90.0198 346.862 91.5922 346.862 94.213V106H351.49V93.4971C351.502 88.7925 348.818 86.1079 344.765 86.1079C341.825 86.1079 339.805 87.5141 338.91 89.7002H338.68V86.3635H334.257V106H338.885V94.4942ZM356.194 106H360.822V94.0596C360.822 91.6434 362.433 90.007 364.427 90.007C366.383 90.007 367.725 91.3238 367.725 93.3437V106H372.264V93.7527C372.264 91.5411 373.581 90.007 375.818 90.007C377.684 90.007 379.167 91.1064 379.167 93.5354V106H383.808V92.8195C383.808 88.4346 381.277 86.1079 377.672 86.1079C374.821 86.1079 372.647 87.5141 371.778 89.7002H371.574C370.819 87.4758 368.914 86.1079 366.268 86.1079C363.635 86.1079 361.666 87.463 360.848 89.7002H360.618V86.3635H356.194V106ZM397.068 106.384C402.821 106.384 406.477 102.331 406.477 96.2584C406.477 90.1732 402.821 86.1079 397.068 86.1079C391.315 86.1079 387.659 90.1732 387.659 96.2584C387.659 102.331 391.315 106.384 397.068 106.384ZM397.094 102.676C393.911 102.676 392.351 99.838 392.351 96.2456C392.351 92.6533 393.911 89.7769 397.094 89.7769C400.226 89.7769 401.786 92.6533 401.786 96.2456C401.786 99.838 400.226 102.676 397.094 102.676ZM410.61 106H415.161V102.906H415.429C416.158 104.338 417.679 106.345 421.054 106.345C425.682 106.345 429.147 102.676 429.147 96.2073C429.147 89.6618 425.58 86.1079 421.042 86.1079C417.577 86.1079 416.132 88.1917 415.429 89.6107H415.238V79.8181H410.61V106ZM415.148 96.1817C415.148 92.3721 416.784 89.9047 419.763 89.9047C422.844 89.9047 424.429 92.5255 424.429 96.1817C424.429 99.8635 422.819 102.548 419.763 102.548C416.81 102.548 415.148 99.9914 415.148 96.1817ZM433.081 106H437.709V86.3635H433.081V106ZM435.408 83.5766C436.878 83.5766 438.08 82.4516 438.08 81.0709C438.08 79.6775 436.878 78.5525 435.408 78.5525C433.925 78.5525 432.723 79.6775 432.723 81.0709C432.723 82.4516 433.925 83.5766 435.408 83.5766ZM447.096 79.8181H442.468V106H447.096V79.8181ZM451.854 106H456.482V86.3635H451.854V106ZM454.181 83.5766C455.651 83.5766 456.853 82.4516 456.853 81.0709C456.853 79.6775 455.651 78.5525 454.181 78.5525C452.698 78.5525 451.496 79.6775 451.496 81.0709C451.496 82.4516 452.698 83.5766 454.181 83.5766ZM466.892 106.396C469.973 106.396 471.814 104.952 472.657 103.303H472.811V106H477.26V92.8579C477.26 87.6675 473.028 86.1079 469.282 86.1079C465.153 86.1079 461.983 87.9488 460.96 91.5283L465.281 92.1419C465.741 90.7996 467.045 89.649 469.308 89.649C471.456 89.649 472.632 90.7485 472.632 92.6789V92.7556C472.632 94.0851 471.238 94.149 467.774 94.5198C463.964 94.9289 460.321 96.0667 460.321 100.49C460.321 104.351 463.146 106.396 466.892 106.396ZM468.093 102.996C466.163 102.996 464.782 102.114 464.782 100.413C464.782 98.6363 466.329 97.8948 468.4 97.6008C469.615 97.4346 472.044 97.1277 472.645 96.6419V98.9559C472.645 101.142 470.88 102.996 468.093 102.996ZM481.913 106H486.541V94.4559C486.541 91.963 488.42 90.1988 490.964 90.1988C491.744 90.1988 492.716 90.3394 493.112 90.4672V86.2101C492.69 86.1334 491.961 86.0823 491.45 86.0823C489.2 86.0823 487.321 87.3607 486.605 89.6363H486.4V86.3635H481.913V106ZM496.186 106H500.814V86.3635H496.186V106ZM498.513 83.5766C499.983 83.5766 501.185 82.4516 501.185 81.0709C501.185 79.6775 499.983 78.5525 498.513 78.5525C497.03 78.5525 495.828 79.6775 495.828 81.0709C495.828 82.4516 497.03 83.5766 498.513 83.5766ZM514.138 106.384C519.891 106.384 523.548 102.331 523.548 96.2584C523.548 90.1732 519.891 86.1079 514.138 86.1079C508.386 86.1079 504.729 90.1732 504.729 96.2584C504.729 102.331 508.386 106.384 514.138 106.384ZM514.164 102.676C510.981 102.676 509.421 99.838 509.421 96.2456C509.421 92.6533 510.981 89.7769 514.164 89.7769C517.296 89.7769 518.856 92.6533 518.856 96.2456C518.856 99.838 517.296 102.676 514.164 102.676ZM542.995 91.5539C542.356 88.23 539.697 86.1079 535.095 86.1079C530.365 86.1079 527.143 88.4346 527.156 92.0652C527.143 94.9289 528.907 96.8209 532.679 97.6008L536.028 98.3039C537.831 98.7002 538.674 99.4289 538.674 100.541C538.674 101.884 537.217 102.893 535.018 102.893C532.896 102.893 531.515 101.973 531.119 100.209L526.606 100.643C527.181 104.249 530.211 106.384 535.031 106.384C539.94 106.384 543.404 103.839 543.417 100.119C543.404 97.3195 541.602 95.6064 537.895 94.801L534.545 94.0851C532.551 93.6377 531.758 92.9473 531.771 91.8096C531.758 90.48 533.228 89.5596 535.159 89.5596C537.294 89.5596 538.419 90.7229 538.777 92.0141L542.995 91.5539Z" fill="#495057" fill-opacity="0.5"/>
<path d="M305.5 120V20" stroke="#495057" stroke-width="3"/>
<path d="M57.3111 72.5L27.8662 89.5L57.3111 106.5L86.7559 89.5L57.3111 72.5Z" fill="#EFEFEF" stroke="#495057" stroke-opacity="0.5"/>
<path d="M29.878 56.75L0.433105 39.75L0.433105 73.75L29.878 90.75L29.878 56.75Z" fill="#FFF500" stroke="#495057" stroke-opacity="0.5"/>
<path d="M59.7559 39.5L30.311 22.5L0.866186 39.5L30.311 56.5L59.7559 39.5Z" fill="#D14242" stroke="#495057" stroke-opacity="0.5"/>
<path d="M59.878 39.75L30.4331 56.75L30.4331 90.75L59.878 73.75L59.878 39.75Z" fill="white" stroke="#495057" stroke-opacity="0.5"/>
<path d="M16.8033 52.1783L16.8033 71.6101C16.7916 74.5181 15.623 75.3952 13.5428 74.1942C11.6028 73.0742 10.3056 70.9624 10.2706 68.7021L5.95829 66.2124C5.95829 71.3132 9.18374 75.7933 13.3792 78.2156C17.9953 80.8807 21.0922 79.43 21.1039 74.093L21.1039 54.6612L16.8033 52.1783Z" fill="#495057" fill-opacity="0.5"/>
<path d="M38.4342 82.8626L40.4092 74.9077L49.4077 69.7124L51.3944 75.38L56.0223 72.7081L47.5847 49.9432L42.2323 53.0334L33.8064 85.5344L38.4342 82.8626ZM41.5778 70.2116L44.815 57.2099L45.002 57.1019L48.2391 66.3658L41.5778 70.2116Z" fill="#495057" fill-opacity="0.5"/>
</svg>
