<svg width="91" height="44" viewBox="0 0 91 44" fill="none" xmlns="http://www.w3.org/2000/svg">
<path d="M9.68395 1.36364V15.1705C9.67436 17.2415 8.71555 18.3441 7.00888 18.3441C5.41726 18.3441 4.35298 17.3757 4.32422 15.7841H0.786222C0.786222 19.4084 3.43253 21.2685 6.87465 21.2685C10.6619 21.2685 13.2028 18.9673 13.2124 15.1705V1.36364H9.68395ZM19.8061 21.2972C22.1168 21.2972 23.4975 20.2138 24.1303 18.9769H24.2453V21H27.582V11.1435C27.582 7.25071 24.4083 6.08097 21.599 6.08097C18.5021 6.08097 16.1243 7.46165 15.3572 10.1463L18.598 10.6065C18.9431 9.59979 19.9211 8.73686 21.6182 8.73686C23.229 8.73686 24.1111 9.56143 24.1111 11.0092V11.0668C24.1111 12.0639 23.066 12.1119 20.4676 12.3899C17.6104 12.6967 14.8778 13.5501 14.8778 16.8675C14.8778 19.7631 16.9968 21.2972 19.8061 21.2972ZM20.7074 18.7468C19.2596 18.7468 18.224 18.0852 18.224 16.81C18.224 15.4773 19.3842 14.9212 20.9375 14.7006C21.8483 14.576 23.6701 14.3459 24.1207 13.9815V15.717C24.1207 17.3565 22.7975 18.7468 20.7074 18.7468ZM42.3495 6.27273H38.6581L35.264 17.2127H35.1105L31.726 6.27273H28.025L33.2696 21H37.1049L42.3495 6.27273ZM43.4014 21H46.8722V6.27273H43.4014V21ZM45.1464 4.18253C46.249 4.18253 47.1503 3.33878 47.1503 2.30327C47.1503 1.25817 46.249 0.414417 45.1464 0.414417C44.0342 0.414417 43.1329 1.25817 43.1329 2.30327C43.1329 3.33878 44.0342 4.18253 45.1464 4.18253ZM55.6113 21.2876C59.0438 21.2876 61.4025 19.6097 62.0161 17.0497L58.7753 16.6854C58.3055 17.9318 57.155 18.5838 55.6592 18.5838C53.4156 18.5838 51.9295 17.1072 51.9007 14.5856H62.1599V13.5213C62.1599 8.35334 59.0534 6.08097 55.4291 6.08097C51.2104 6.08097 48.4586 9.17791 48.4586 13.7227C48.4586 18.3441 51.172 21.2876 55.6113 21.2876ZM51.9103 12.2461C52.0157 10.3668 53.406 8.7848 55.477 8.7848C57.4714 8.7848 58.8137 10.2422 58.8329 12.2461H51.9103ZM63.7463 21H67.2172V12.342C67.2172 10.4723 68.6266 9.14915 70.5346 9.14915C71.1195 9.14915 71.8482 9.25462 72.1454 9.3505V6.15767C71.829 6.10014 71.2825 6.06179 70.899 6.06179C69.2115 6.06179 67.802 7.0206 67.2651 8.72727H67.1117V6.27273H63.7463V21ZM4.45845 43L6.07884 38.158H13.4616L15.0916 43H18.8885L11.9659 23.3636H7.57457L0.661577 43H4.45845ZM7.03764 35.3008L9.69354 27.3906H9.84695L12.5028 35.3008H7.03764ZM26.4027 28.2727H23.4975V24.7443H20.0266V28.2727H17.9364V30.9574H20.0266V39.1456C20.0074 41.9165 22.0209 43.2781 24.6289 43.2013C25.6164 43.1726 26.2972 42.9808 26.6711 42.8562L26.0863 40.1428C25.8945 40.1907 25.5014 40.277 25.0699 40.277C24.1974 40.277 23.4975 39.9702 23.4975 38.5703V30.9574H26.4027V28.2727ZM34.3171 43.2876C37.7497 43.2876 40.1083 41.6097 40.722 39.0497L37.4812 38.6854C37.0114 39.9318 35.8608 40.5838 34.3651 40.5838C32.1215 40.5838 30.6353 39.1072 30.6066 36.5856H40.8658V35.5213C40.8658 30.3533 37.7593 28.081 34.135 28.081C29.9162 28.081 27.1644 31.1779 27.1644 35.7227C27.1644 40.3441 29.8779 43.2876 34.3171 43.2876ZM30.6161 34.2461C30.7216 32.3668 32.1119 30.7848 34.1829 30.7848C36.1772 30.7848 37.5195 32.2422 37.5387 34.2461H30.6161ZM45.923 34.3707C45.923 32.2422 47.2078 31.0149 49.0391 31.0149C50.8321 31.0149 51.906 32.1942 51.906 34.1598V43H55.3768V33.6229C55.3864 30.0945 53.3729 28.081 50.3335 28.081C48.1283 28.081 46.6134 29.1357 45.9422 30.7752H45.7696V28.2727H42.4521V43H45.923V34.3707ZM63.9793 43.2876C67.6803 43.2876 70.0389 41.092 70.2882 37.9663H66.9707C66.6735 39.5483 65.5325 40.4592 64.008 40.4592C61.8411 40.4592 60.4413 38.647 60.4413 35.6364C60.4413 32.6641 61.8699 30.8807 64.008 30.8807C65.6763 30.8807 66.7023 31.9545 66.9707 33.3736H70.2882C70.0485 30.1808 67.5556 28.081 63.9601 28.081C59.6455 28.081 56.9224 31.1971 56.9224 35.6939C56.9224 40.1523 59.5783 43.2876 63.9793 43.2876ZM71.7883 43H75.2591V28.2727H71.7883V43ZM73.5333 26.1825C74.6359 26.1825 75.5372 25.3388 75.5372 24.3033C75.5372 23.2582 74.6359 22.4144 73.5333 22.4144C72.4211 22.4144 71.5198 23.2582 71.5198 24.3033C71.5198 25.3388 72.4211 26.1825 73.5333 26.1825ZM83.9023 43.2876C88.2169 43.2876 90.9591 40.2482 90.9591 35.6939C90.9591 31.13 88.2169 28.081 83.9023 28.081C79.5877 28.081 76.8455 31.13 76.8455 35.6939C76.8455 40.2482 79.5877 43.2876 83.9023 43.2876ZM83.9215 40.5071C81.5341 40.5071 80.3643 38.3786 80.3643 35.6843C80.3643 32.9901 81.5341 30.8327 83.9215 30.8327C86.2706 30.8327 87.4403 32.9901 87.4403 35.6843C87.4403 38.3786 86.2706 40.5071 83.9215 40.5071Z" fill="white"/>
</svg>
