<svg width="554" height="120" viewBox="0 0 554 120" fill="none" xmlns="http://www.w3.org/2000/svg">
<path d="M151.504 31.0909V55.4318C151.487 58.7898 149.987 60.5625 147.259 60.5625C144.686 60.5625 143.015 58.9602 142.964 56.1818H135.617C135.583 63.1534 140.561 66.4773 146.884 66.4773C153.958 66.4773 158.782 62.1989 158.799 55.4318V31.0909H151.504ZM172.231 66.4943C176.1 66.4943 178.606 64.8068 179.884 62.3693H180.089V66H186.975V48.3409C186.975 42.1023 181.691 39.4773 175.862 39.4773C169.589 39.4773 165.464 42.4773 164.458 47.25L171.174 47.7955C171.668 46.0568 173.22 44.7784 175.828 44.7784C178.299 44.7784 179.714 46.0227 179.714 48.1705V48.2727C179.714 49.9602 177.924 50.1818 173.373 50.625C168.191 51.1023 163.538 52.8409 163.538 58.6875C163.538 63.8693 167.237 66.4943 172.231 66.4943ZM174.311 61.483C172.078 61.483 170.475 60.4432 170.475 58.4489C170.475 56.4034 172.163 55.3977 174.72 55.0398C176.305 54.8182 178.896 54.4432 179.765 53.8636V56.642C179.765 59.3864 177.498 61.483 174.311 61.483ZM216.08 39.8182H208.393L202.972 58.5511H202.7L197.262 39.8182H189.592L198.745 66H206.927L216.08 39.8182ZM219.796 66H227.058V39.8182H219.796V66ZM223.444 36.4432C225.609 36.4432 227.382 34.7898 227.382 32.7614C227.382 30.75 225.609 29.0966 223.444 29.0966C221.296 29.0966 219.524 30.75 219.524 32.7614C219.524 34.7898 221.296 36.4432 223.444 36.4432ZM244.806 66.5114C251.284 66.5114 255.647 63.358 256.67 58.5L249.954 58.0568C249.221 60.0511 247.346 61.0909 244.926 61.0909C241.295 61.0909 238.994 58.6875 238.994 54.7841V54.767H256.823V52.7727C256.823 43.875 251.437 39.4773 244.516 39.4773C236.812 39.4773 231.818 44.9489 231.818 53.0284C231.818 61.3295 236.744 66.5114 244.806 66.5114ZM238.994 50.267C239.147 47.2841 241.414 44.8977 244.636 44.8977C247.789 44.8977 249.971 47.1477 249.988 50.267H238.994ZM261.562 66H268.823V51.1875C268.823 47.9659 271.176 45.75 274.38 45.75C275.386 45.75 276.766 45.9205 277.448 46.142V39.6989C276.801 39.5455 275.897 39.4432 275.164 39.4432C272.232 39.4432 269.829 41.1477 268.874 44.3864H268.602V39.8182H261.562V66ZM116.59 106L119.181 98.0398H131.778L134.369 106H142.278L130.244 71.0909H120.732L108.681 106H116.59ZM121.056 92.2784L125.352 79.0682H125.624L129.92 92.2784H121.056ZM158.629 79.8182H153.703V73.5455H146.441V79.8182H142.862V85.2727H146.441V98.9091C146.407 104.04 149.901 106.58 155.168 106.358C157.043 106.29 158.373 105.915 159.106 105.676L157.964 100.273C157.606 100.341 156.839 100.511 156.157 100.511C154.708 100.511 153.703 99.9659 153.703 97.9545V85.2727H158.629V79.8182ZM175.009 106.511C181.487 106.511 185.85 103.358 186.873 98.5L180.157 98.0568C179.424 100.051 177.549 101.091 175.129 101.091C171.498 101.091 169.197 98.6875 169.197 94.7841V94.767H187.026V92.7727C187.026 83.875 181.64 79.4773 174.72 79.4773C167.015 79.4773 162.021 84.9489 162.021 93.0284C162.021 101.33 166.947 106.511 175.009 106.511ZM169.197 90.267C169.35 87.2841 171.617 84.8977 174.839 84.8977C177.992 84.8977 180.174 87.1477 180.191 90.267H169.197ZM199.026 90.8636C199.043 87.4886 201.055 85.5114 203.987 85.5114C206.901 85.5114 208.657 87.4205 208.64 90.625V106H215.901V89.3295C215.901 83.2273 212.322 79.4773 206.867 79.4773C202.981 79.4773 200.168 81.3864 198.992 84.4375H198.686V79.8182H191.765V106H199.026V90.8636ZM233.454 106.511C240.426 106.511 244.806 102.42 245.147 96.4034H238.295C237.869 99.1989 236.028 100.767 233.539 100.767C230.147 100.767 227.948 97.9205 227.948 92.9091C227.948 87.9659 230.164 85.1364 233.539 85.1364C236.198 85.1364 237.903 86.892 238.295 89.5H245.147C244.84 83.4489 240.255 79.4773 233.42 79.4773C225.477 79.4773 220.568 84.983 220.568 93.0114C220.568 100.972 225.391 106.511 233.454 106.511ZM249.796 106H257.058V79.8182H249.796V106ZM253.444 76.4432C255.609 76.4432 257.382 74.7898 257.382 72.7614C257.382 70.75 255.609 69.0966 253.444 69.0966C251.296 69.0966 249.524 70.75 249.524 72.7614C249.524 74.7898 251.296 76.4432 253.444 76.4432ZM274.704 106.511C282.647 106.511 287.59 101.074 287.59 93.0114C287.59 84.8977 282.647 79.4773 274.704 79.4773C266.761 79.4773 261.818 84.8977 261.818 93.0114C261.818 101.074 266.761 106.511 274.704 106.511ZM274.738 100.886C271.073 100.886 269.198 97.5284 269.198 92.9602C269.198 88.392 271.073 85.017 274.738 85.017C278.335 85.017 280.21 88.392 280.21 92.9602C280.21 97.5284 278.335 100.886 274.738 100.886Z" fill="white"/>
<path d="M346.098 35.8182H341.381V53.6648H341.151L328.827 35.8182H324.582V62H329.325V44.1662H329.543L341.879 62H346.098V35.8182ZM359.755 62.3835C364.331 62.3835 367.476 60.1463 368.294 56.733L363.973 56.2472C363.347 57.9091 361.813 58.7784 359.819 58.7784C356.827 58.7784 354.846 56.8097 354.807 53.4474H368.486V52.0284C368.486 45.1378 364.344 42.108 359.512 42.108C353.887 42.108 350.218 46.2372 350.218 52.2969C350.218 58.4588 353.836 62.3835 359.755 62.3835ZM354.82 50.3281C354.961 47.8224 356.814 45.7131 359.576 45.7131C362.235 45.7131 364.025 47.6562 364.05 50.3281H354.82ZM380.941 69.696C386.246 69.696 390.158 67.267 390.158 62.3196V42.3636H385.594V45.6108H385.339C384.636 44.1918 383.165 42.108 379.701 42.108C375.163 42.108 371.596 45.6619 371.596 52.1179C371.596 58.5227 375.163 61.7188 379.688 61.7188C383.05 61.7188 384.623 59.9162 385.339 58.4716H385.569V62.1918C385.569 65.0043 383.651 66.1932 381.018 66.1932C378.231 66.1932 377.004 64.8764 376.441 63.8026L372.273 64.8125C373.117 67.4844 375.942 69.696 380.941 69.696ZM380.979 58.0881C377.924 58.0881 376.313 55.7102 376.313 52.0923C376.313 48.5256 377.898 45.9048 380.979 45.9048C383.958 45.9048 385.594 48.3722 385.594 52.0923C385.594 55.8381 383.933 58.0881 380.979 58.0881ZM403.467 62.3835C409.219 62.3835 412.876 58.331 412.876 52.2585C412.876 46.1733 409.219 42.108 403.467 42.108C397.714 42.108 394.058 46.1733 394.058 52.2585C394.058 58.331 397.714 62.3835 403.467 62.3835ZM403.492 58.6761C400.309 58.6761 398.749 55.8381 398.749 52.2457C398.749 48.6534 400.309 45.777 403.492 45.777C406.624 45.777 408.184 48.6534 408.184 52.2457C408.184 55.8381 406.624 58.6761 403.492 58.6761ZM425.369 62.3835C430.304 62.3835 433.449 59.456 433.781 55.2884H429.358C428.961 57.3977 427.44 58.6122 425.407 58.6122C422.518 58.6122 420.652 56.196 420.652 52.1818C420.652 48.2188 422.556 45.8409 425.407 45.8409C427.632 45.8409 429 47.2727 429.358 49.1648H433.781C433.461 44.9077 430.137 42.108 425.343 42.108C419.591 42.108 415.96 46.2628 415.96 52.2585C415.96 58.2031 419.501 62.3835 425.369 62.3835ZM437.581 62H442.209V42.3636H437.581V62ZM439.908 39.5767C441.378 39.5767 442.58 38.4517 442.58 37.071C442.58 35.6776 441.378 34.5526 439.908 34.5526C438.425 34.5526 437.223 35.6776 437.223 37.071C437.223 38.4517 438.425 39.5767 439.908 39.5767ZM455.533 62.3835C461.286 62.3835 464.942 58.331 464.942 52.2585C464.942 46.1733 461.286 42.108 455.533 42.108C449.78 42.108 446.124 46.1733 446.124 52.2585C446.124 58.331 449.78 62.3835 455.533 62.3835ZM455.559 58.6761C452.375 58.6761 450.816 55.8381 450.816 52.2457C450.816 48.6534 452.375 45.777 455.559 45.777C458.691 45.777 460.25 48.6534 460.25 52.2457C460.25 55.8381 458.691 58.6761 455.559 58.6761ZM484.39 47.554C483.751 44.2301 481.092 42.108 476.489 42.108C471.759 42.108 468.538 44.4347 468.55 48.0653C468.538 50.929 470.302 52.821 474.073 53.6009L477.423 54.304C479.225 54.7003 480.069 55.429 480.069 56.5412C480.069 57.8835 478.612 58.8935 476.413 58.8935C474.29 58.8935 472.91 57.973 472.513 56.2088L468.001 56.6435C468.576 60.2486 471.606 62.3835 476.425 62.3835C481.335 62.3835 484.799 59.8395 484.812 56.1193C484.799 53.3196 482.996 51.6065 479.289 50.8011L475.94 50.0852C473.945 49.6378 473.153 48.9474 473.165 47.8097C473.153 46.4801 474.623 45.5597 476.553 45.5597C478.688 45.5597 479.813 46.723 480.171 48.0142L484.39 47.554ZM329.325 79.8182H324.582V106H329.325V79.8182ZM338.885 94.4943C338.885 91.6562 340.598 90.0199 343.039 90.0199C345.43 90.0199 346.862 91.5923 346.862 94.2131V106H351.49V93.4972C351.502 88.7926 348.818 86.108 344.765 86.108C341.825 86.108 339.805 87.5142 338.91 89.7003H338.68V86.3636H334.257V106H338.885V94.4943ZM356.194 106H360.822V94.0597C360.822 91.6435 362.433 90.0071 364.427 90.0071C366.383 90.0071 367.725 91.3239 367.725 93.3438V106H372.264V93.7528C372.264 91.5412 373.581 90.0071 375.818 90.0071C377.684 90.0071 379.167 91.1065 379.167 93.5355V106H383.808V92.8196C383.808 88.4347 381.277 86.108 377.672 86.108C374.821 86.108 372.647 87.5142 371.778 89.7003H371.574C370.819 87.4759 368.914 86.108 366.268 86.108C363.635 86.108 361.666 87.4631 360.848 89.7003H360.618V86.3636H356.194V106ZM397.068 106.384C402.821 106.384 406.477 102.331 406.477 96.2585C406.477 90.1733 402.821 86.108 397.068 86.108C391.315 86.108 387.659 90.1733 387.659 96.2585C387.659 102.331 391.315 106.384 397.068 106.384ZM397.094 102.676C393.911 102.676 392.351 99.8381 392.351 96.2457C392.351 92.6534 393.911 89.777 397.094 89.777C400.226 89.777 401.786 92.6534 401.786 96.2457C401.786 99.8381 400.226 102.676 397.094 102.676ZM410.61 106H415.161V102.906H415.429C416.158 104.338 417.679 106.345 421.054 106.345C425.682 106.345 429.147 102.676 429.147 96.2074C429.147 89.6619 425.58 86.108 421.042 86.108C417.577 86.108 416.132 88.1918 415.429 89.6108H415.238V79.8182H410.61V106ZM415.148 96.1818C415.148 92.3722 416.784 89.9048 419.763 89.9048C422.844 89.9048 424.429 92.5256 424.429 96.1818C424.429 99.8636 422.819 102.548 419.763 102.548C416.81 102.548 415.148 99.9915 415.148 96.1818ZM433.081 106H437.709V86.3636H433.081V106ZM435.408 83.5767C436.878 83.5767 438.08 82.4517 438.08 81.071C438.08 79.6776 436.878 78.5526 435.408 78.5526C433.925 78.5526 432.723 79.6776 432.723 81.071C432.723 82.4517 433.925 83.5767 435.408 83.5767ZM447.096 79.8182H442.468V106H447.096V79.8182ZM451.854 106H456.482V86.3636H451.854V106ZM454.181 83.5767C455.651 83.5767 456.853 82.4517 456.853 81.071C456.853 79.6776 455.651 78.5526 454.181 78.5526C452.698 78.5526 451.496 79.6776 451.496 81.071C451.496 82.4517 452.698 83.5767 454.181 83.5767ZM466.892 106.396C469.973 106.396 471.814 104.952 472.657 103.303H472.811V106H477.26V92.858C477.26 87.6676 473.028 86.108 469.282 86.108C465.153 86.108 461.983 87.9489 460.96 91.5284L465.281 92.142C465.741 90.7997 467.045 89.6491 469.308 89.6491C471.456 89.6491 472.632 90.7486 472.632 92.679V92.7557C472.632 94.0852 471.238 94.1491 467.774 94.5199C463.964 94.929 460.321 96.0668 460.321 100.49C460.321 104.351 463.146 106.396 466.892 106.396ZM468.093 102.996C466.163 102.996 464.782 102.114 464.782 100.413C464.782 98.6364 466.329 97.8949 468.4 97.6009C469.615 97.4347 472.044 97.1278 472.645 96.642V98.956C472.645 101.142 470.88 102.996 468.093 102.996ZM481.913 106H486.541V94.456C486.541 91.9631 488.42 90.1989 490.964 90.1989C491.744 90.1989 492.716 90.3395 493.112 90.4673V86.2102C492.69 86.1335 491.961 86.0824 491.45 86.0824C489.2 86.0824 487.321 87.3608 486.605 89.6364H486.4V86.3636H481.913V106ZM496.186 106H500.814V86.3636H496.186V106ZM498.513 83.5767C499.983 83.5767 501.185 82.4517 501.185 81.071C501.185 79.6776 499.983 78.5526 498.513 78.5526C497.03 78.5526 495.828 79.6776 495.828 81.071C495.828 82.4517 497.03 83.5767 498.513 83.5767ZM514.138 106.384C519.891 106.384 523.548 102.331 523.548 96.2585C523.548 90.1733 519.891 86.108 514.138 86.108C508.386 86.108 504.729 90.1733 504.729 96.2585C504.729 102.331 508.386 106.384 514.138 106.384ZM514.164 102.676C510.981 102.676 509.421 99.8381 509.421 96.2457C509.421 92.6534 510.981 89.777 514.164 89.777C517.296 89.777 518.856 92.6534 518.856 96.2457C518.856 99.8381 517.296 102.676 514.164 102.676ZM542.995 91.554C542.356 88.2301 539.697 86.108 535.095 86.108C530.365 86.108 527.143 88.4347 527.156 92.0653C527.143 94.929 528.907 96.821 532.679 97.6009L536.028 98.304C537.831 98.7003 538.674 99.429 538.674 100.541C538.674 101.884 537.217 102.893 535.018 102.893C532.896 102.893 531.515 101.973 531.119 100.209L526.606 100.643C527.181 104.249 530.211 106.384 535.031 106.384C539.94 106.384 543.404 103.839 543.417 100.119C543.404 97.3196 541.602 95.6065 537.895 94.8011L534.545 94.0852C532.551 93.6378 531.758 92.9474 531.771 91.8097C531.758 90.4801 533.228 89.5597 535.159 89.5597C537.294 89.5597 538.419 90.723 538.777 92.0142L542.995 91.554Z" fill="white"/>
<path d="M305.5 120V20" stroke="white" stroke-width="3"/>
<path d="M57.3111 72.5L27.8662 89.5L57.3111 106.5L86.7559 89.5L57.3111 72.5Z" fill="#EFEFEF" stroke="#495057" stroke-opacity="0.5"/>
<path d="M29.878 56.75L0.433105 39.75L0.433105 73.75L29.878 90.75L29.878 56.75Z" fill="#FFF500" stroke="#495057" stroke-opacity="0.5"/>
<path d="M59.7559 39.5L30.311 22.5L0.866186 39.5L30.311 56.5L59.7559 39.5Z" fill="#D14242" stroke="#495057" stroke-opacity="0.5"/>
<path d="M59.878 39.75L30.4331 56.75L30.4331 90.75L59.878 73.75L59.878 39.75Z" fill="white" stroke="#495057" stroke-opacity="0.5"/>
<path d="M16.8033 52.1783L16.8033 71.6101C16.7916 74.5181 15.623 75.3952 13.5428 74.1942C11.6028 73.0742 10.3056 70.9624 10.2706 68.7021L5.95829 66.2124C5.95829 71.3132 9.18374 75.7933 13.3792 78.2156C17.9953 80.8807 21.0922 79.43 21.1039 74.093L21.1039 54.6612L16.8033 52.1783Z" fill="#495057" fill-opacity="0.5"/>
<path d="M38.4342 82.8626L40.4092 74.9077L49.4077 69.7124L51.3944 75.38L56.0223 72.7081L47.5847 49.9432L42.2323 53.0334L33.8064 85.5344L38.4342 82.8626ZM41.5778 70.2116L44.815 57.2099L45.002 57.1019L48.2391 66.3658L41.5778 70.2116Z" fill="#495057" fill-opacity="0.5"/>
</svg>
