<svg width="200" height="200" viewBox="0 0 200 200" fill="none" xmlns="http://www.w3.org/2000/svg">
<path d="M41.6667 87.5C41.6667 50 66.6667 25 104.167 25C141.667 25 166.667 56.25 166.667 87.5C166.667 106.938 148.531 133.631 112.258 167.577C107.628 171.91 100.488 172.09 95.6455 167.996C59.6597 137.565 41.6667 110.733 41.6667 87.5ZM104.167 100C115.673 100 125 90.6726 125 79.1667C125 67.6607 115.673 58.3333 104.167 58.3333C92.6608 58.3333 83.3334 67.6607 83.3334 79.1667C83.3334 90.6726 92.6608 100 104.167 100Z" fill="black"/>
<rect x="0.866025" width="34" height="34" transform="matrix(0.866025 -0.5 0.866025 0.5 92.116 110.933)" fill="#EFEFEF" stroke="#495057"/>
<rect x="0.433013" y="0.75" width="34" height="34" transform="matrix(0.866025 0.5 -2.20305e-08 1 65.058 59.7835)" fill="#FFF500" stroke="#495057"/>
<rect x="-2.98023e-08" y="0.5" width="34" height="34" transform="matrix(0.866025 0.5 -0.866025 0.5 95.7439 43.25)" fill="#D14242" stroke="#495057"/>
<rect x="0.433013" y="0.25" width="34" height="34" transform="matrix(0.866025 -0.5 2.20305e-08 1 95.058 77.7165)" fill="white" stroke="#495057"/>
</svg>
